<svg width="168" height="44" viewBox="0 0 168 44" fill="none" xmlns="http://www.w3.org/2000/svg">
  <defs>
    <linearGradient id="vg" x1="6" y1="4" x2="38" y2="40" gradientUnits="userSpaceOnUse">
      <stop stop-color="#6ee7b7"/>
      <stop offset="0.55" stop-color="#34d399"/>
      <stop offset="1" stop-color="#059669"/>
    </linearGradient>
    <linearGradient id="vgloss" x1="10" y1="6" x2="22" y2="24" gradientUnits="userSpaceOnUse">
      <stop stop-color="#ffffff" stop-opacity="0.5"/>
      <stop offset="1" stop-color="#ffffff" stop-opacity="0"/>
    </linearGradient>
  </defs>
  <rect x="2" y="2" width="40" height="40" rx="13" fill="url(#vg)"/>
  <rect x="2" y="2" width="40" height="40" rx="13" fill="url(#vgloss)"/>
  <rect x="2.5" y="2.5" width="39" height="39" rx="12.5" stroke="#ffffff" stroke-opacity="0.35"/>
  <path d="M13 14.5C13 14.5 18.2 30 22 30C25.8 30 31 14.5 31 14.5C31 14.5 27.5 25 22 25C16.5 25 13 14.5 13 14.5Z" fill="#022c22" fill-opacity="0.9"/>
  <path d="M22 30C22 30 22 20 30.5 13.5C24.5 15 22 22 22 30Z" fill="#022c22" fill-opacity="0.8"/>
  <text x="56" y="29" font-family="'Plus Jakarta Sans','Outfit',sans-serif" font-size="23" font-weight="800" letter-spacing="-0.5" fill="#ffffff">Verdant</text>
</svg>
