<svg width="44" height="44" viewBox="0 0 44 44" fill="none" xmlns="http://www.w3.org/2000/svg">
  <defs>
    <linearGradient id="vg" x1="6" y1="4" x2="38" y2="40" gradientUnits="userSpaceOnUse">
      <stop stop-color="#34d399"/>
      <stop offset="0.55" stop-color="#10b981"/>
      <stop offset="1" stop-color="#047857"/>
    </linearGradient>
    <linearGradient id="vgloss" x1="10" y1="6" x2="22" y2="24" gradientUnits="userSpaceOnUse">
      <stop stop-color="#ffffff" stop-opacity="0.55"/>
      <stop offset="1" stop-color="#ffffff" stop-opacity="0"/>
    </linearGradient>
  </defs>
  <rect x="2" y="2" width="40" height="40" rx="13" fill="url(#vg)"/>
  <rect x="2" y="2" width="40" height="40" rx="13" fill="url(#vgloss)"/>
  <rect x="2.5" y="2.5" width="39" height="39" rx="12.5" stroke="#ffffff" stroke-opacity="0.35"/>
  <path d="M13 14.5C13 14.5 18.2 30 22 30C25.8 30 31 14.5 31 14.5C31 14.5 27.5 25 22 25C16.5 25 13 14.5 13 14.5Z" fill="#ffffff" fill-opacity="0.95"/>
  <path d="M22 30C22 30 22 20 30.5 13.5C24.5 15 22 22 22 30Z" fill="#ffffff" fill-opacity="0.85"/>
</svg>
